<?xml version="1.0" encoding="UTF-8" standalone="no"?>
<svg
   xmlns:dc="http://purl.org/dc/elements/1.1/"
   xmlns:cc="http://creativecommons.org/ns#"
   xmlns:rdf="http://www.w3.org/1999/02/22-rdf-syntax-ns#"
   xmlns:svg="http://www.w3.org/2000/svg"
   xmlns="http://www.w3.org/2000/svg"
   xmlns:sodipodi="http://sodipodi.sourceforge.net/DTD/sodipodi-0.dtd"
   xmlns:inkscape="http://www.inkscape.org/namespaces/inkscape"
   width="1700.7874"
   height="1700.7874"
   viewBox="0 0 450 450"
   version="1.1"
   id="svg8"
   inkscape:version="1.0.2-2 (e86c870879, 2021-01-15)"
   sodipodi:docname="icon.svg"
   inkscape:export-filename="C:\Users\1kova\Desktop\dev\tracker\icons\icon-512.png"
   inkscape:export-xdpi="28.899557"
   inkscape:export-ydpi="28.899557">
  <defs
     id="defs2" />
  <sodipodi:namedview
     id="base"
     pagecolor="#ffffff"
     bordercolor="#666666"
     borderopacity="1.0"
     inkscape:pageopacity="0.0"
     inkscape:pageshadow="2"
     inkscape:zoom="0.24748737"
     inkscape:cx="661.79434"
     inkscape:cy="826.8853"
     inkscape:document-units="mm"
     inkscape:current-layer="layer1"
     inkscape:document-rotation="0"
     showgrid="false"
     units="px"
     inkscape:snap-bbox="true"
     inkscape:bbox-paths="true"
     inkscape:bbox-nodes="true"
     inkscape:window-width="1920"
     inkscape:window-height="1001"
     inkscape:window-x="-9"
     inkscape:window-y="-9"
     inkscape:window-maximized="1"
     inkscape:pagecheckerboard="false" />
  <metadata
     id="metadata5">
    <rdf:RDF>
      <cc:Work
         rdf:about="">
        <dc:format>image/svg+xml</dc:format>
        <dc:type
           rdf:resource="http://purl.org/dc/dcmitype/StillImage" />
        <dc:title></dc:title>
      </cc:Work>
    </rdf:RDF>
  </metadata>
  <g
     inkscape:label="Layer 1"
     inkscape:groupmode="layer"
     id="layer1">
    <g
       id="g1191"
       transform="translate(-2.5273482,17.512971)">
      <path
         id="path833"
         style="fill:#ffd5d5;stroke-width:0.412327"
         d="M 223.51319,79.464391 A 155.8408,155.8408 0 0 0 67.672119,235.30546 155.8408,155.8408 0 0 0 223.51319,391.1457 155.8408,155.8408 0 0 0 379.35343,235.30546 155.8408,155.8408 0 0 0 223.51319,79.464391 Z m 0,24.779599 A 131.06153,131.06153 0 0 1 354.57464,235.30546 131.06153,131.06153 0 0 1 223.51319,366.36692 131.06153,131.06153 0 0 1 92.451716,235.30546 131.06153,131.06153 0 0 1 223.51319,104.24399 Z" />
      <path
         id="path833-3"
         style="fill:#ffeeaa;stroke-width:0.372839"
         d="M 223.47871,94.388951 A 140.91643,140.91643 0 0 0 82.596679,235.30546 140.91643,140.91643 0 0 0 223.51319,376.22115 140.91643,140.91643 0 0 0 364.42887,235.30546 140.91643,140.91643 0 0 0 223.51319,94.388951 a 140.91643,140.91643 0 0 0 -0.0345,0 z m 0.0345,9.855039 A 131.06153,131.06153 0 0 1 354.57464,235.30546 131.06153,131.06153 0 0 1 223.51319,366.36692 131.06153,131.06153 0 0 1 92.451716,235.30546 131.06153,131.06153 0 0 1 223.51319,104.24399 Z" />
      <rect
         style="fill:#ffd5d5;fill-opacity:1;stroke-width:0.24474"
         id="rect875"
         width="41.941799"
         height="56.436447"
         x="202.54195"
         y="35.210545" />
      <rect
         style="fill:#ffd5d5;fill-opacity:1;stroke-width:0.317234"
         id="rect875-4"
         width="101.10649"
         height="39.335068"
         x="173.51468"
         y="23.828344"
         ry="8.2850485" />
      <path
         id="rect875-2"
         style="fill:#ffd5d5;fill-opacity:1;stroke-width:0.188748"
         d="m 353.96231,99.9083 -20.3421,17.6005 a 161.24429,161.24429 0 0 1 20.88715,23.77489 l 20.16151,-17.44372 z" />
      <rect
         style="fill:#ffd5d5;fill-opacity:1;stroke-width:0.198404"
         id="rect875-4-4"
         width="62.863251"
         height="24.745756"
         x="291.87866"
         y="-208.14816"
         ry="5.2121377"
         transform="rotate(49.132965)" />
      <path
         id="path833-3-2-3"
         style="fill:#ffeeaa;fill-opacity:1;stroke-width:0.322937"
         d="m 223.30798,113.24945 a 122.05571,122.05571 0 0 0 -0.57213,0.002 v 91.99346 a 30.069466,30.069466 0 0 1 0.77734,-0.01 30.069466,30.069466 0 0 1 26.26942,15.43841 h 83.46082 c 5.22637,0 9.75408,2.87941 12.09428,7.14379 a 122.05571,122.05571 0 0 0 -121.82452,-114.56828 122.05571,122.05571 0 0 0 -0.20521,0 z" />
      <g
         id="g1059"
         style="fill:#ffd5d5;fill-opacity:1"
         transform="matrix(1.5884274,0,0,1.5884274,-133.88331,-122.09104)">
        <circle
           style="fill:#ffd5d5;fill-opacity:1;stroke-width:0.0362968"
           id="path833-3-2-7"
           cx="225"
           cy="225"
           r="13.718581" />
        <rect
           style="fill:#ffd5d5;fill-opacity:1;stroke-width:0.25372"
           id="rect1012"
           width="73.338509"
           height="7.5595236"
           x="221.94695"
           y="221.22025"
           ry="3.7797618" />
      </g>
      <rect
         style="fill:#ffeeaa;fill-opacity:1;stroke-width:0.420271"
         id="rect1084"
         width="34.222099"
         height="11.407366"
         x="108.07294"
         y="229.60143"
         ry="5.7036829" />
      <rect
         style="fill:#ffd5d5;fill-opacity:1;stroke-width:0.420271"
         id="rect1084-6"
         width="34.222099"
         height="11.407366"
         x="316.70563"
         y="-229.21646"
         ry="5.7036829"
         transform="rotate(90)" />
      <rect
         style="fill:#ffeeaa;fill-opacity:1;stroke-width:0.420271"
         id="rect1084-6-2"
         width="34.222099"
         height="11.407366"
         x="316.75195"
         y="-229.28156"
         ry="5.7036829"
         transform="rotate(90)" />
    </g>
  </g>
</svg>
