<?xml version="1.0" encoding="UTF-8" standalone="no"?>
<svg
   xmlns:dc="http://purl.org/dc/elements/1.1/"
   xmlns:cc="http://creativecommons.org/ns#"
   xmlns:rdf="http://www.w3.org/1999/02/22-rdf-syntax-ns#"
   xmlns:svg="http://www.w3.org/2000/svg"
   xmlns="http://www.w3.org/2000/svg"
   xmlns:sodipodi="http://sodipodi.sourceforge.net/DTD/sodipodi-0.dtd"
   xmlns:inkscape="http://www.inkscape.org/namespaces/inkscape"
   width="1700.7874"
   height="1700.7874"
   viewBox="0 0 450 450"
   version="1.1"
   id="svg8"
   inkscape:version="1.0.2-2 (e86c870879, 2021-01-15)"
   sodipodi:docname="icon.svg"
   inkscape:export-filename="C:\Users\1kova\Desktop\dev\tracker\icons\icon-512.png"
   inkscape:export-xdpi="28.899557"
   inkscape:export-ydpi="28.899557">
  <defs
     id="defs2" />
  <sodipodi:namedview
     id="base"
     pagecolor="#ffffff"
     bordercolor="#666666"
     borderopacity="1.0"
     inkscape:pageopacity="0.0"
     inkscape:pageshadow="2"
     inkscape:zoom="0.24748737"
     inkscape:cx="661.79434"
     inkscape:cy="826.8853"
     inkscape:document-units="mm"
     inkscape:current-layer="g1191"
     inkscape:document-rotation="0"
     showgrid="false"
     units="px"
     inkscape:snap-bbox="true"
     inkscape:bbox-paths="true"
     inkscape:bbox-nodes="true"
     inkscape:window-width="1920"
     inkscape:window-height="1001"
     inkscape:window-x="-9"
     inkscape:window-y="-9"
     inkscape:window-maximized="1"
     inkscape:pagecheckerboard="false" />
  <metadata
     id="metadata5">
    <rdf:RDF>
      <cc:Work
         rdf:about="">
        <dc:format>image/svg+xml</dc:format>
        <dc:type
           rdf:resource="http://purl.org/dc/dcmitype/StillImage" />
        <dc:title />
      </cc:Work>
    </rdf:RDF>
  </metadata>
  <g
     inkscape:label="Layer 1"
     inkscape:groupmode="layer"
     id="layer1">
    <g
       id="g1191"
       transform="translate(-2.5273482,17.512971)">
      <path
         id="path833"
         style="fill:#ffd5d5;stroke-width:1.5584"
         d="M 677.56445 156.25 C 660.21674 156.25 646.25195 170.21674 646.25195 187.56445 L 646.25195 273.60547 C 646.25195 290.95319 660.21674 304.91797 677.56445 304.91797 L 755.96094 304.91797 L 755.96094 371.88672 A 589.00459 589.00459 0 0 0 246.2168 955.53516 A 589.00459 589.00459 0 0 0 835.22266 1544.5371 A 589.00459 589.00459 0 0 0 1424.2246 955.53516 A 589.00459 589.00459 0 0 0 914.48047 371.88672 L 914.48047 304.91797 L 997.07227 304.91797 C 1014.42 304.91797 1028.3867 290.95319 1028.3867 273.60547 L 1028.3867 187.56445 C 1028.3867 170.21674 1014.42 156.25 997.07227 156.25 L 677.56445 156.25 z M 1304.707 393.76758 C 1300.298 393.87211 1295.8959 395.45795 1292.2852 398.58203 L 1251.3516 433.99805 C 1243.0985 441.1388 1242.203 453.53206 1249.3438 461.78516 L 1274.2285 490.54492 L 1251.375 510.31836 A 609.42724 609.42724 0 0 1 1330.3184 600.17578 L 1352.4863 580.99609 L 1379.0234 611.66602 C 1386.1642 619.91912 1398.5555 620.81458 1406.8086 613.67383 L 1447.7422 578.25781 C 1455.9953 571.11706 1456.8908 558.7238 1449.75 550.4707 L 1320.0703 400.58984 C 1316.0536 395.94748 1310.3758 393.63318 1304.707 393.76758 z M 835.22266 460.18359 A 495.35065 495.35065 0 0 1 1330.5723 955.53516 A 495.35065 495.35065 0 0 1 835.22266 1450.8848 A 495.35065 495.35065 0 0 1 339.87109 955.53516 A 495.35065 495.35065 0 0 1 835.22266 460.18359 z "
         transform="matrix(0.26458333,0,0,0.26458333,2.5273482,-17.512971)" />
      <path
         id="path833-3"
         style="fill:#ffeeaa;stroke-width:1.40916"
         d="M 835.0918 422.93555 A 532.59752 532.59752 0 0 0 302.625 955.53516 A 532.59752 532.59752 0 0 0 835.22266 1488.1289 A 532.59752 532.59752 0 0 0 1367.8164 955.53516 A 532.59752 532.59752 0 0 0 835.22266 422.93555 A 532.59752 532.59752 0 0 0 835.0918 422.93555 z M 835.22266 460.18359 A 495.35065 495.35065 0 0 1 1330.5723 955.53516 A 495.35065 495.35065 0 0 1 835.22266 1450.8848 A 495.35065 495.35065 0 0 1 339.87109 955.53516 A 495.35065 495.35065 0 0 1 835.22266 460.18359 z M 834.44727 494.21875 L 834.44727 494.2207 A 461.31291 461.31291 0 0 0 832.2832 494.22852 L 832.2832 841.91992 A 113.64838 113.64838 0 0 1 835.22266 841.88086 A 113.64838 113.64838 0 0 1 934.50781 900.23242 L 1249.9512 900.23242 C 1269.7044 900.23242 1286.8173 911.11508 1295.6621 927.23242 A 461.31291 461.31291 0 0 0 835.22266 494.21875 A 461.31291 461.31291 0 0 0 834.44727 494.21875 z M 420.46875 933.97656 C 408.52605 933.97656 398.91211 943.5905 398.91211 955.5332 C 398.91211 967.47591 408.52605 977.08984 420.46875 977.08984 L 506.69922 977.08984 C 518.64192 977.08984 528.25586 967.47591 528.25586 955.5332 C 528.25586 943.5905 518.64192 933.97656 506.69922 933.97656 L 420.46875 933.97656 z M 835.2207 1263.1875 C 823.278 1263.1875 813.66406 1272.8034 813.66406 1284.7461 L 813.66406 1370.9746 C 813.66406 1378.4713 817.45379 1385.0485 823.22852 1388.9082 C 826.70179 1391.3011 830.91178 1392.707 835.4668 1392.707 C 847.4095 1392.707 857.02344 1383.0931 857.02344 1371.1504 L 857.02344 1284.9199 C 857.02344 1277.4232 853.23354 1270.8458 847.45898 1266.9863 C 843.98565 1264.5934 839.77562 1263.1875 835.2207 1263.1875 z "
         transform="matrix(0.26458333,0,0,0.26458333,2.5273482,-17.512971)" />
      <g
         id="g1059"
         style="fill:#ffd5d5;fill-opacity:1"
         transform="matrix(1.5884274,0,0,1.5884274,-133.88331,-122.09104)">
        <path
           id="path833-3-2-7"
           style="fill:#ffd5d5;fill-opacity:1;stroke-width:0.0362968"
           d="M 238.71858,225 A 13.718581,13.718581 0 0 1 225,238.71858 13.718581,13.718581 0 0 1 211.28142,225 13.718581,13.718581 0 0 1 225,211.28142 13.718581,13.718581 0 0 1 238.71858,225 Z" />
        <path
           id="rect1012"
           style="fill:#ffd5d5;fill-opacity:1;stroke-width:0.25372"
           d="m 225.72671,221.22025 h 65.77898 c 2.09399,0 3.77976,1.68577 3.77976,3.77976 0,2.09399 -1.68577,3.77976 -3.77976,3.77976 h -65.77898 c -2.09399,0 -3.77976,-1.68577 -3.77976,-3.77976 0,-2.09399 1.68577,-3.77976 3.77976,-3.77976 z" />
      </g>
    </g>
  </g>
</svg>
